<svg xmlns="http://www.w3.org/2000/svg" xmlns:xlink="http://www.w3.org/1999/xlink" x="0" y="0" width="661.2666625976562" height="277.26666259765625" style="
        width:661.2666625976562px;
        height:277.26666259765625px;
        background: transparent;
        fill: none;
">
        <svg xmlns="http://www.w3.org/2000/svg"/>
        
        <svg xmlns="http://www.w3.org/2000/svg" class="role-diagram-draw-area"><g class="shapes-region" style="stroke: black; fill: none;"><g class="composite-shape" data-amt="diagram/shapes/plot" transform="matrix(1,0,0,1,81.36666870117188,-1)"><g><g/><g><g class="test-xti" style="font-family: Asana-Math, Asana;"><line x1="0" y1="243.65623522997134" x2="501.6333312988281" y2="243.65623522997134" fill="none" stroke="rgb(50,50,50)" stroke-opacity="1" stroke-width="1"/><line x1="122.80661835204162" y1="239.65623522997134" x2="122.80661835204162" y2="247.65623522997134" fill="none" stroke="rgb(50,50,50)" stroke-opacity="1" stroke-width="1"/><line x1="212.53301263297254" y1="239.65623522997134" x2="212.53301263297254" y2="247.65623522997134" fill="none" stroke="rgb(50,50,50)" stroke-opacity="1" stroke-width="1"/><line x1="302.2594069139034" y1="239.65623522997134" x2="302.2594069139034" y2="247.65623522997134" fill="none" stroke="rgb(50,50,50)" stroke-opacity="1" stroke-width="1"/><line x1="391.98580119483427" y1="239.65623522997134" x2="391.98580119483427" y2="247.65623522997134" fill="none" stroke="rgb(50,50,50)" stroke-opacity="1" stroke-width="1"/><line x1="481.71219547576516" y1="239.65623522997134" x2="481.71219547576516" y2="247.65623522997134" fill="none" stroke="rgb(50,50,50)" stroke-opacity="1" stroke-width="1"/><path d="M496.6333312988281,240.05623522997135 L504.6333312988281,243.65623522997134 L496.6333312988281,247.25623522997134 Z" stroke="none" stroke-width="1" fill="rgb(50,50,50)" fill-opacity="1"/></g><g class="test-yti" style="font-family: Asana-Math, Asana;"><line x1="33.08022407111076" y1="4" x2="33.08022407111076" y2="270" fill="none" stroke="rgb(50,50,50)" stroke-opacity="1" stroke-width="1"/><line x1="29.080224071110763" y1="153.92984094904045" x2="37.08022407111076" y2="153.92984094904045" fill="none" stroke="rgb(50,50,50)" stroke-opacity="1" stroke-width="1"/><line x1="29.080224071110763" y1="64.20344666810959" x2="37.08022407111076" y2="64.20344666810959" fill="none" stroke="rgb(50,50,50)" stroke-opacity="1" stroke-width="1"/><path d="M29.48022407111076,9 L33.08022407111076,1 L36.680224071110764,9 Z" stroke="none" stroke-width="1" fill="rgb(50,50,50)" fill-opacity="1"/></g><g class="test-plot-expression"><defs><clipPath id="cp2zecfr85r"><rect x="1" y="1" width="503.6333312988281" height="268"/></clipPath></defs><g clip-path="url(#cp2zecfr85r)"><path d=" M0.00,-13.74 L0.50,-13.24 L1.00,-12.74 L1.50,-12.24 L2.00,-11.74 L2.50,-11.24 L3.00,-10.74 L3.50,-10.24 L4.00,-9.74 L4.50,-9.24 L5.00,-8.74 L5.51,-8.23 L6.01,-7.73 L6.51,-7.23 L7.01,-6.73 L7.51,-6.23 L8.01,-5.73 L8.51,-5.23 L9.01,-4.73 L9.51,-4.23 L10.01,-3.73 L10.51,-3.23 L11.01,-2.73 L11.51,-2.23 L12.01,-1.73 L12.51,-1.23 L13.01,-0.73 L13.51,-0.23 L14.01,0.27 L14.51,0.77 L15.01,1.27 L15.52,1.78 L16.02,2.28 L16.52,2.78 L17.02,3.28 L17.52,3.78 L18.02,4.28 L18.52,4.78 L19.02,5.28 L19.52,5.78 L20.02,6.28 L20.52,6.78 L21.02,7.28 L21.52,7.78 L22.02,8.28 L22.52,8.78 L23.02,9.28 L23.52,9.78 L24.02,10.28 L24.52,10.78 L25.02,11.28 L25.53,11.79 L26.03,12.29 L26.53,12.79 L27.03,13.29 L27.53,13.79 L28.03,14.29 L28.53,14.79 L29.03,15.29 L29.53,15.79 L30.03,16.29 L30.53,16.79 L31.03,17.29 L31.53,17.79 L32.03,18.29 L32.53,18.79 L33.03,19.29 L33.53,19.79 L34.03,20.29 L34.53,20.79 L35.03,21.29 L35.54,21.80 L36.04,22.30 L36.54,22.80 L37.04,23.30 L37.54,23.80 L38.04,24.30 L38.54,24.80 L39.04,25.30 L39.54,25.80 L40.04,26.30 L40.54,26.80 L41.04,27.30 L41.54,27.80 L42.04,28.30 L42.54,28.80 L43.04,29.30 L43.54,29.80 L44.04,30.30 L44.54,30.80 L45.04,31.30 L45.55,31.81 L46.05,32.31 L46.55,32.81 L47.05,33.31 L47.55,33.81 L48.05,34.31 L48.55,34.81 L49.05,35.31 L49.55,35.81 L50.05,36.31 L50.55,36.81 L51.05,37.31 L51.55,37.81 L52.05,38.31 L52.55,38.81 L53.05,39.31 L53.55,39.81 L54.05,40.31 L54.55,40.81 L55.05,41.31 L55.55,41.81 L56.06,42.32 L56.56,42.82 L57.06,43.32 L57.56,43.82 L58.06,44.32 L58.56,44.82 L59.06,45.32 L59.56,45.82 L60.06,46.32 L60.56,46.82 L61.06,47.32 L61.56,47.82 L62.06,48.32 L62.56,48.82 L63.06,49.32 L63.56,49.82 L64.06,50.32 L64.56,50.82 L65.06,51.32 L65.56,51.82 L66.07,52.33 L66.57,52.83 L67.07,53.33 L67.57,53.83 L68.07,54.33 L68.57,54.83 L69.07,55.33 L69.57,55.83 L70.07,56.33 L70.57,56.83 L71.07,57.33 L71.57,57.83 L72.07,58.33 L72.57,58.83 L73.07,59.33 L73.57,59.83 L74.07,60.33 L74.57,60.83 L75.07,61.33 L75.57,61.83 L76.08,62.34 L76.58,62.84 L77.08,63.34 L77.58,63.84 L78.08,64.34 L78.58,64.84 L79.08,65.34 L79.58,65.84 L80.08,66.34 L80.58,66.84 L81.08,67.34 L81.58,67.84 L82.08,68.34 L82.58,68.84 L83.08,69.34 L83.58,69.84 L84.08,70.34 L84.58,70.84 L85.08,71.34 L85.58,71.84 L86.09,72.35 L86.59,72.85 L87.09,73.35 L87.59,73.85 L88.09,74.35 L88.59,74.85 L89.09,75.35 L89.59,75.85 L90.09,76.35 L90.59,76.85 L91.09,77.35 L91.59,77.85 L92.09,78.35 L92.59,78.85 L93.09,79.35 L93.59,79.85 L94.09,80.35 L94.59,80.85 L95.09,81.35 L95.59,81.85 L96.10,82.36 L96.60,82.86 L97.10,83.36 L97.60,83.86 L98.10,84.36 L98.60,84.86 L99.10,85.36 L99.60,85.86 L100.10,86.36 L100.60,86.86 L101.10,87.36 L101.60,87.86 L102.10,88.36 L102.60,88.86 L103.10,89.36 L103.60,89.86 L104.10,90.36 L104.60,90.86 L105.10,91.36 L105.60,91.86 L106.10,92.36 L106.61,92.87 L107.11,93.37 L107.61,93.87 L108.11,94.37 L108.61,94.87 L109.11,95.37 L109.61,95.87 L110.11,96.37 L110.61,96.87 L111.11,97.37 L111.61,97.87 L112.11,98.37 L112.61,98.87 L113.11,99.37 L113.61,99.87 L114.11,100.37 L114.61,100.87 L115.11,101.37 L115.61,101.87 L116.11,102.37 L116.62,102.88 L117.12,103.38 L117.62,103.88 L118.12,104.38 L118.62,104.88 L119.12,105.38 L119.62,105.88 L120.12,106.38 L120.62,106.88 L121.12,107.38 L121.62,107.88 L122.12,108.38 L122.62,108.88 L123.12,109.38 L123.62,109.88 L124.12,110.38 L124.62,110.88 L125.12,111.38 L125.62,111.88 L126.12,112.38 L126.63,112.89 L127.13,113.39 L127.63,113.89 L128.13,114.39 L128.63,114.89 L129.13,115.39 L129.63,115.89 L130.13,116.39 L130.63,116.89 L131.13,117.39 L131.63,117.89 L132.13,118.39 L132.63,118.89 L133.13,119.39 L133.63,119.89 L134.13,120.39 L134.63,120.89 L135.13,121.39 L135.63,121.89 L136.13,122.39 L136.64,122.90 L137.14,123.40 L137.64,123.90 L138.14,124.40 L138.64,124.90 L139.14,125.40 L139.64,125.90 L140.14,126.40 L140.64,126.90 L141.14,127.40 L141.64,127.90 L142.14,128.40 L142.64,128.90 L143.14,129.40 L143.64,129.90 L144.14,130.40 L144.64,130.90 L145.14,131.40 L145.64,131.90 L146.14,132.40 L146.65,132.91 L147.15,133.41 L147.65,133.91 L148.15,134.41 L148.65,134.91 L149.15,135.41 L149.65,135.91 L150.15,136.41 L150.65,136.91 L151.15,137.41 L151.65,137.91 L152.15,138.41 L152.65,138.91 L153.15,139.41 L153.65,139.91 L154.15,140.41 L154.65,140.91 L155.15,141.41 L155.65,141.91 L156.15,142.41 L156.65,142.91 L157.16,143.42 L157.66,143.92 L158.16,144.42 L158.66,144.92 L159.16,145.42 L159.66,145.92 L160.16,146.42 L160.66,146.92 L161.16,147.42 L161.66,147.92 L162.16,148.42 L162.66,148.92 L163.16,149.42 L163.66,149.92 L164.16,150.42 L164.66,150.92 L165.16,151.42 L165.66,151.92 L166.16,152.42 L166.66,152.92 L167.17,153.43 L167.67,153.93 L168.17,154.43 L168.67,154.93 L169.17,155.43 L169.67,155.93 L170.17,156.43 L170.67,156.93 L171.17,157.43 L171.67,157.93 L172.17,158.43 L172.67,158.93 L173.17,159.43 L173.67,159.93 L174.17,160.43 L174.67,160.93 L175.17,161.43 L175.67,161.93 L176.17,162.43 L176.67,162.93 L177.18,163.44 L177.68,163.94 L178.18,164.44 L178.68,164.94 L179.18,165.44 L179.68,165.94 L180.18,166.44 L180.68,166.94 L181.18,167.44 L181.68,167.94 L182.18,168.44 L182.68,168.94 L183.18,169.44 L183.68,169.94 L184.18,170.44 L184.68,170.94 L185.18,171.44 L185.68,171.94 L186.18,172.44 L186.68,172.94 L187.19,173.45 L187.69,173.95 L188.19,174.45 L188.69,174.95 L189.19,175.45 L189.69,175.95 L190.19,176.45 L190.69,176.95 L191.19,177.45 L191.69,177.95 L192.19,178.45 L192.69,178.95 L193.19,179.45 L193.69,179.95 L194.19,180.45 L194.69,180.95 L195.19,181.45 L195.69,181.95 L196.19,182.45 L196.69,182.95 L197.19,183.46 L197.70,183.96 L198.20,184.46 L198.70,184.96 L199.20,185.46 L199.70,185.96 L200.20,186.46 L200.70,186.96 L201.20,187.46 L201.70,187.96 L202.20,188.46 L202.70,188.96 L203.20,189.46 L203.70,189.96 L204.20,190.46 L204.70,190.96 L205.20,191.46 L205.70,191.96 L206.20,192.46 L206.70,192.96 L207.20,193.46 L207.71,193.97 L208.21,194.47 L208.71,194.97 L209.21,195.47 L209.71,195.97 L210.21,196.47 L210.71,196.97 L211.21,197.47 L211.71,197.97 L212.21,198.47 L212.71,198.97 L213.21,199.47 L213.71,199.97 L214.21,200.47 L214.71,200.97 L215.21,201.47 L215.71,201.97 L216.21,202.47 L216.71,202.97 L217.21,203.47 L217.72,203.98 L218.22,204.48 L218.72,204.98 L219.22,205.48 L219.72,205.98 L220.22,206.48 L220.72,206.98 L221.22,207.48 L221.72,207.98 L222.22,208.48 L222.72,208.98 L223.22,209.48 L223.72,209.98 L224.22,210.48 L224.72,210.98 L225.22,211.48 L225.72,211.98 L226.22,212.48 L226.72,212.98 L227.22,213.48 L227.73,213.99 L228.23,214.49 L228.73,214.99 L229.23,215.49 L229.73,215.99 L230.23,216.49 L230.73,216.99 L231.23,217.49 L231.73,217.99 L232.23,218.49 L232.73,218.99 L233.23,219.49 L233.73,219.99 L234.23,220.49 L234.73,220.99 L235.23,221.49 L235.73,221.99 L236.23,222.49 L236.73,222.99 L237.23,223.49 L237.74,224.00 L238.24,224.50 L238.74,225.00 L239.24,225.50 L239.74,226.00 L240.24,226.50 L240.74,227.00 L241.24,227.50 L241.74,228.00 L242.24,228.50 L242.74,229.00 L243.24,229.50 L243.74,230.00 L244.24,230.50 L244.74,231.00 L245.24,231.50 L245.74,232.00 L246.24,232.50 L246.74,233.00 L247.24,233.50 L247.74,234.01 L248.25,234.51 L248.75,235.01 L249.25,235.51 L249.75,236.01 L250.25,236.51 L250.75,237.01 L251.25,237.51 L251.75,238.01 L252.25,238.51 L252.75,239.01 L253.25,239.51 L253.75,240.01 L254.25,240.51 L254.75,241.01 L255.25,241.51 L255.75,242.01 L256.25,242.51 L256.75,243.01 L257.25,243.51 L257.75,244.01 L258.26,244.52 L258.76,245.02 L259.26,245.52 L259.76,246.02 L260.26,246.52 L260.76,247.02 L261.26,247.52 L261.76,248.02 L262.26,248.52 L262.76,249.02 L263.26,249.52 L263.76,250.02 L264.26,250.52 L264.76,251.02 L265.26,251.52 L265.76,252.02 L266.26,252.52 L266.76,253.02 L267.26,253.52 L267.76,254.02 L268.27,254.53 L268.77,255.03 L269.27,255.53 L269.77,256.03 L270.27,256.53 L270.77,257.03 L271.27,257.53 L271.77,258.03 L272.27,258.53 L272.77,259.03 L273.27,259.53 L273.77,260.03 L274.27,260.53 L274.77,261.03 L275.27,261.53 L275.77,262.03 L276.27,262.53 L276.77,263.03 L277.27,263.53 L277.77,264.03 L278.28,264.54 L278.78,265.04 L279.28,265.54 L279.78,266.04 L280.28,266.54 L280.78,267.04 L281.28,267.54 L281.78,268.04 L282.28,268.54 L282.78,269.04 L283.28,269.54 L283.78,270.04 L284.28,270.54 L284.78,271.04 L285.28,271.54 L285.78,272.04 L286.28,272.54 L286.78,273.04 L287.28,273.54 L287.78,274.04 L288.29,274.55 L288.79,275.05 L289.29,275.55 L289.79,276.05 L290.29,276.55 L290.79,277.05 L291.29,277.55 L291.79,278.05 L292.29,278.55 L292.79,279.05 L293.29,279.55 L293.79,280.05 L294.29,280.55 L294.79,281.05 L295.29,281.55 L295.79,282.05 L296.29,282.55 L296.79,283.05 L297.29,283.55 L297.79,284.05 L298.29,284.55 L298.80,285.06 L299.30,285.56 L299.80,286.06 L300.30,286.56 L300.80,287.06 L301.30,287.56 L301.80,288.06 L302.30,288.56 L302.80,289.06 L303.30,289.56 L303.80,290.06 L304.30,290.56 L304.80,291.06 L305.30,291.56 L305.80,292.06 L306.30,292.56 L306.80,293.06 L307.30,293.56 L307.80,294.06 L308.30,294.56 L308.81,295.07 L309.31,295.57 L309.81,296.07 L310.31,296.57 L310.81,297.07 L311.31,297.57 L311.81,298.07 L312.31,298.57 L312.81,299.07 L313.31,299.57 L313.81,300.07 L314.31,300.57 L314.81,301.07 L315.31,301.57 L315.81,302.07 L316.31,302.57 L316.81,303.07 L317.31,303.57 L317.81,304.07 L318.31,304.57 L318.82,305.08 L319.32,305.58 L319.82,306.08 L320.32,306.58 L320.82,307.08 L321.32,307.58 L321.82,308.08 L322.32,308.58 L322.82,309.08 L323.32,309.58 L323.82,310.08 L324.32,310.58 L324.82,311.08 L325.32,311.58 L325.82,312.08 L326.32,312.58 L326.82,313.08 L327.32,313.58 L327.82,314.08 L328.32,314.58 L328.83,315.09 L329.33,315.59 L329.83,316.09 L330.33,316.59 L330.83,317.09 L331.33,317.59 L331.83,318.09 L332.33,318.59 L332.83,319.09 L333.33,319.59 L333.83,320.09 L334.33,320.59 L334.83,321.09 L335.33,321.59 L335.83,322.09 L336.33,322.59 L336.83,323.09 L337.33,323.59 L337.83,324.09 L338.33,324.59 L338.84,325.10 L339.34,325.60 L339.84,326.10 L340.34,326.60 L340.84,327.10 L341.34,327.60 L341.84,328.10 L342.34,328.60 L342.84,329.10 L343.34,329.60 L343.84,330.10 L344.34,330.60 L344.84,331.10 L345.34,331.60 L345.84,332.10 L346.34,332.60 L346.84,333.10 L347.34,333.60 L347.84,334.10 L348.34,334.60 L348.84,335.10 L349.35,335.61 L349.85,336.11 L350.35,336.61 L350.85,337.11 L351.35,337.61 L351.85,338.11 L352.35,338.61 L352.85,339.11 L353.35,339.61 L353.85,340.11 L354.35,340.61 L354.85,341.11 L355.35,341.61 L355.85,342.11 L356.35,342.61 L356.85,343.11 L357.35,343.61 L357.85,344.11 L358.35,344.61 L358.85,345.11 L359.36,345.62 L359.86,346.12 L360.36,346.62 L360.86,347.12 L361.36,347.62 L361.86,348.12 L362.36,348.62 L362.86,349.12 L363.36,349.62 L363.86,350.12 L364.36,350.62 L364.86,351.12 L365.36,351.62 L365.86,352.12 L366.36,352.62 L366.86,353.12 L367.36,353.62 L367.86,354.12 L368.36,354.62 L368.86,355.12 L369.37,355.63 L369.87,356.13 L370.37,356.63 L370.87,357.13 L371.37,357.63 L371.87,358.13 L372.37,358.63 L372.87,359.13 L373.37,359.63 L373.87,360.13 L374.37,360.63 L374.87,361.13 L375.37,361.63 L375.87,362.13 L376.37,362.63 L376.87,363.13 L377.37,363.63 L377.87,364.13 L378.37,364.63 L378.87,365.13 L379.38,365.64 L379.88,366.14 L380.38,366.64 L380.88,367.14 L381.38,367.64 L381.88,368.14 L382.38,368.64 L382.88,369.14 L383.38,369.64 L383.88,370.14 L384.38,370.64 L384.88,371.14 L385.38,371.64 L385.88,372.14 L386.38,372.64 L386.88,373.14 L387.38,373.64 L387.88,374.14 L388.38,374.64 L388.88,375.14 L389.39,375.65 L389.89,376.15 L390.39,376.65 L390.89,377.15 L391.39,377.65 L391.89,378.15 L392.39,378.65 L392.89,379.15 L393.39,379.65 L393.89,380.15 L394.39,380.65 L394.89,381.15 L395.39,381.65 L395.89,382.15 L396.39,382.65 L396.89,383.15 L397.39,383.65 L397.89,384.15 L398.39,384.65 L398.89,385.15 L399.39,385.65 L399.90,386.16 L400.40,386.66 L400.90,387.16 L401.40,387.66 L401.90,388.16 L402.40,388.66 L402.90,389.16 L403.40,389.66 L403.90,390.16 L404.40,390.66 L404.90,391.16 L405.40,391.66 L405.90,392.16 L406.40,392.66 L406.90,393.16 L407.40,393.66 L407.90,394.16 L408.40,394.66 L408.90,395.16 L409.40,395.66 L409.91,396.17 L410.41,396.67 L410.91,397.17 L411.41,397.67 L411.91,398.17 L412.41,398.67 L412.91,399.17 L413.41,399.67 L413.91,400.17 L414.41,400.67 L414.91,401.17 L415.41,401.67 L415.91,402.17 L416.41,402.67 L416.91,403.17 L417.41,403.67 L417.91,404.17 L418.41,404.67 L418.91,405.17 L419.41,405.67 L419.92,406.18 L420.42,406.68 L420.92,407.18 L421.42,407.68 L421.92,408.18 L422.42,408.68 L422.92,409.18 L423.42,409.68 L423.92,410.18 L424.42,410.68 L424.92,411.18 L425.42,411.68 L425.92,412.18 L426.42,412.68 L426.92,413.18 L427.42,413.68 L427.92,414.18 L428.42,414.68 L428.92,415.18 L429.42,415.68 L429.93,416.19 L430.43,416.69 L430.93,417.19 L431.43,417.69 L431.93,418.19 L432.43,418.69 L432.93,419.19 L433.43,419.69 L433.93,420.19 L434.43,420.69 L434.93,421.19 L435.43,421.69 L435.93,422.19 L436.43,422.69 L436.93,423.19 L437.43,423.69 L437.93,424.19 L438.43,424.69 L438.93,425.19 L439.43,425.69 L439.94,426.20 L440.44,426.70 L440.94,427.20 L441.44,427.70 L441.94,428.20 L442.44,428.70 L442.94,429.20 L443.44,429.70 L443.94,430.20 L444.44,430.70 L444.94,431.20 L445.44,431.70 L445.94,432.20 L446.44,432.70 L446.94,433.20 L447.44,433.70 L447.94,434.20 L448.44,434.70 L448.94,435.20 L449.44,435.70 L449.94,436.20 L450.45,436.71 L450.95,437.21 L451.45,437.71 L451.95,438.21 L452.45,438.71 L452.95,439.21 L453.45,439.71 L453.95,440.21 L454.45,440.71 L454.95,441.21 L455.45,441.71 L455.95,442.21 L456.45,442.71 L456.95,443.21 L457.45,443.71 L457.95,444.21 L458.45,444.71 L458.95,445.21 L459.45,445.71 L459.95,446.21 L460.46,446.72 L460.96,447.22 L461.46,447.72 L461.96,448.22 L462.46,448.72 L462.96,449.22 L463.46,449.72 L463.96,450.22 L464.46,450.72 L464.96,451.22 L465.46,451.72 L465.96,452.22 L466.46,452.72 L466.96,453.22 L467.46,453.72 L467.96,454.22 L468.46,454.72 L468.96,455.22 L469.46,455.72 L469.96,456.22 L470.47,456.73 L470.97,457.23 L471.47,457.73 L471.97,458.23 L472.47,458.73 L472.97,459.23 L473.47,459.73 L473.97,460.23 L474.47,460.73 L474.97,461.23 L475.47,461.73 L475.97,462.23 L476.47,462.73 L476.97,463.23 L477.47,463.73 L477.97,464.23 L478.47,464.73 L478.97,465.23 L479.47,465.73 L479.97,466.23 L480.48,466.74 L480.98,467.24 L481.48,467.74 L481.98,468.24 L482.48,468.74 L482.98,469.24 L483.48,469.74 L483.98,470.24 L484.48,470.74 L484.98,471.24 L485.48,471.74 L485.98,472.24 L486.48,472.74 L486.98,473.24 L487.48,473.74 L487.98,474.24 L488.48,474.74 L488.98,475.24 L489.48,475.74 L489.98,476.24 L490.49,476.75 L490.99,477.25 L491.49,477.75 L491.99,478.25 L492.49,478.75 L492.99,479.25 L493.49,479.75 L493.99,480.25 L494.49,480.75 L494.99,481.25 L495.49,481.75 L495.99,482.25 L496.49,482.75 L496.99,483.25 L497.49,483.75 L497.99,484.25 L498.49,484.75 L498.99,485.25 L499.49,485.75 L499.99,486.25 L500.49,486.75 L501.00,487.26 L501.50,487.76 L502.00,488.26 L502.50,488.76 L503.00,489.26 L503.50,489.76 L504.00,490.26 L504.50,490.76 L505.00,491.26 L505.50,491.76 L505.63,491.89" style="stroke-width: 3px; stroke: rgb(74, 144, 226); stroke-opacity: 0.8;"/><g><circle cx="33.08022407111076" cy="19.340249527644175" r="4" style="stroke-width: 3px; stroke: rgb(60, 180, 75); stroke-opacity: 0.8; fill: rgb(60, 180, 75); fill-opacity: 0.15;"/><circle cx="77.9434212115762" cy="64.20344666810959" r="4" style="stroke-width: 3px; stroke: rgb(60, 180, 75); stroke-opacity: 0.8; fill: rgb(60, 180, 75); fill-opacity: 0.15;"/><circle cx="122.80661835204162" cy="109.06664380857504" r="4" style="stroke-width: 3px; stroke: rgb(60, 180, 75); stroke-opacity: 0.8; fill: rgb(60, 180, 75); fill-opacity: 0.15;"/><circle cx="167.66981549250707" cy="153.92984094904045" r="4" style="stroke-width: 3px; stroke: rgb(60, 180, 75); stroke-opacity: 0.8; fill: rgb(60, 180, 75); fill-opacity: 0.15;"/><circle cx="212.53301263297251" cy="198.7930380895059" r="4" style="stroke-width: 3px; stroke: rgb(60, 180, 75); stroke-opacity: 0.8; fill: rgb(60, 180, 75); fill-opacity: 0.15;"/><circle cx="257.396209773438" cy="243.65623522997134" r="4" style="stroke-width: 3px; stroke: rgb(60, 180, 75); stroke-opacity: 0.8; fill: rgb(60, 180, 75); fill-opacity: 0.15;"/></g></g></g><g class="test-xtl" style="font-family: &quot;Open Sans&quot;, verdana, arial, sans-serif;"/><g class="test-ytl" style="font-family: &quot;Open Sans&quot;, verdana, arial, sans-serif;"/><rect class="real" x="1" y="1" width="503.6333312988281" height="268" style="fill: transparent; stroke: none;"/></g></g></g><g/></g><g/><g/><g/></svg>
        <svg xmlns="http://www.w3.org/2000/svg" xmlns:xlink="http://www.w3.org/1999/xlink" width="660" height="276" style="width:660px;height:276px;font-family:Asana-Math, Asana;background:transparent;"><g><g><g><g><g><g><g transform="matrix(1,0,0,1,344.6333312988281,236.6999969482422)"><path transform="matrix(0.017,0,0,-0.017,0,0)" d="M24 388L31 368L63 389C100 412 103 414 110 414C121 414 128 404 128 389C128 338 87 145 46 2L53 -9C78 -2 101 4 123 8C142 134 163 199 209 268C263 352 338 414 383 414C394 414 400 405 400 390C400 372 397 351 389 319L337 107C328 70 324 47 324 31C324 6 335 -9 354 -9C380 -9 416 12 514 85L504 103L478 86C449 67 427 56 417 56C410 56 404 65 404 76C404 81 405 92 406 96L472 372C479 401 483 429 483 446C483 469 472 482 452 482C410 482 341 444 282 389C244 354 216 320 164 247L202 408C206 426 208 438 208 449C208 470 200 482 185 482C164 482 125 460 52 408Z" stroke="rgb(0,0,0)" stroke-opacity="1" stroke-width="8" fill="rgb(0,0,0)" fill-opacity="1"></path></g></g></g></g></g></g></g><g><g><g><g transform="matrix(1,0,0,1,570.6333312988281,233.6999969482422)"><path transform="matrix(0.017,0,0,-0.017,0,0)" d="M9 1C24 -7 40 -11 52 -11C85 -11 124 18 155 65L231 182L242 113C255 28 278 -11 314 -11C336 -11 368 6 400 35L449 79L440 98C404 68 379 53 363 53C348 53 335 63 325 83C316 102 305 139 300 168L282 269L317 318C364 383 391 406 422 406C438 406 450 398 455 383L469 387L484 472C472 479 463 482 454 482C414 482 374 446 312 354L275 299L269 347C257 446 230 482 171 482C145 482 123 474 114 461L56 378L73 368C103 402 123 416 142 416C175 416 197 375 214 277L225 215L185 153C142 86 108 54 80 54C65 54 54 58 52 63L41 91L21 88C21 53 13 27 9 1Z" stroke="rgb(0,0,0)" stroke-opacity="1" stroke-width="8" fill="rgb(0,0,0)" fill-opacity="1"></path></g></g><g><g><g><g><g transform="matrix(1,0,0,1,579.6166687011719,236.6333221435547)"><path transform="matrix(0.0119,0,0,-0.0119,0,0)" d="M418 -3L418 27L366 30C311 33 301 44 301 96L301 700L60 598L67 548L217 614L217 96C217 44 206 33 152 30L96 27L96 -3C250 0 250 0 261 0C292 0 402 -3 418 -3Z" stroke="rgb(0,0,0)" stroke-opacity="1" stroke-width="8" fill="rgb(0,0,0)" fill-opacity="1"></path></g></g></g></g></g></g></g><g><g><g><g><g><g><g transform="matrix(1,0,0,1,94.56668090820312,28.699996948242188)"><path transform="matrix(0.017,0,0,-0.017,0,0)" d="M24 388L31 368L63 389C100 412 103 414 110 414C121 414 128 404 128 389C128 338 87 145 46 2L53 -9C78 -2 101 4 123 8C142 134 163 199 209 268C263 352 338 414 383 414C394 414 400 405 400 390C400 372 397 351 389 319L337 107C328 70 324 47 324 31C324 6 335 -9 354 -9C380 -9 416 12 514 85L504 103L478 86C449 67 427 56 417 56C410 56 404 65 404 76C404 81 405 92 406 96L472 372C479 401 483 429 483 446C483 469 472 482 452 482C410 482 341 444 282 389C244 354 216 320 164 247L202 408C206 426 208 438 208 449C208 470 200 482 185 482C164 482 125 460 52 408Z" stroke="rgb(0,0,0)" stroke-opacity="1" stroke-width="8" fill="rgb(0,0,0)" fill-opacity="1"></path></g></g></g></g></g></g></g><g><g><g><g transform="matrix(1,0,0,1,121.76666259765625,13.699996948242188)"><path transform="matrix(0.017,0,0,-0.017,0,0)" d="M9 1C24 -7 40 -11 52 -11C85 -11 124 18 155 65L231 182L242 113C255 28 278 -11 314 -11C336 -11 368 6 400 35L449 79L440 98C404 68 379 53 363 53C348 53 335 63 325 83C316 102 305 139 300 168L282 269L317 318C364 383 391 406 422 406C438 406 450 398 455 383L469 387L484 472C472 479 463 482 454 482C414 482 374 446 312 354L275 299L269 347C257 446 230 482 171 482C145 482 123 474 114 461L56 378L73 368C103 402 123 416 142 416C175 416 197 375 214 277L225 215L185 153C142 86 108 54 80 54C65 54 54 58 52 63L41 91L21 88C21 53 13 27 9 1Z" stroke="rgb(0,0,0)" stroke-opacity="1" stroke-width="8" fill="rgb(0,0,0)" fill-opacity="1"></path></g></g><g><g><g><g><g transform="matrix(1,0,0,1,130.76666259765625,16.63333740234375)"><path transform="matrix(0.0119,0,0,-0.0119,0,0)" d="M16 23L16 -3C203 -3 203 0 239 0C275 0 275 -3 468 -3L468 82C353 77 307 81 122 77L304 270C401 373 431 428 431 503C431 618 353 689 226 689C154 689 105 669 56 619L39 483L68 483L81 529C97 587 133 612 200 612C286 612 341 558 341 473C341 398 299 324 186 204Z" stroke="rgb(0,0,0)" stroke-opacity="1" stroke-width="8" fill="rgb(0,0,0)" fill-opacity="1"></path></g></g></g></g></g></g></g></svg>
</svg>
